<?xml version="1.0" encoding="utf-8"?>
<!-- Generator: Adobe Illustrator 16.0.3, SVG Export Plug-In . SVG Version: 6.00 Build 0)  -->
<!DOCTYPE svg PUBLIC "-//W3C//DTD SVG 1.1//EN" "http://www.w3.org/Graphics/SVG/1.1/DTD/svg11.dtd">
<svg version="1.1" id="Layer_1" xmlns="http://www.w3.org/2000/svg" xmlns:xlink="http://www.w3.org/1999/xlink" x="0px" y="0px"
	 width="210px" height="50px" viewBox="0 0 210 50" enable-background="new 0 0 210 50" xml:space="preserve">
<g>
	<g>
		<path fill="#020202" d="M60.272,11.337c0.108,0.361,0.227,0.77,0.358,1.224c0.131,0.455,0.27,0.924,0.419,1.41
			c0.148,0.485,0.299,0.971,0.453,1.457c0.153,0.485,0.302,0.935,0.446,1.35c0.117-0.451,0.237-0.94,0.36-1.469
			c0.122-0.53,0.238-1.077,0.346-1.642c0.109-0.564,0.216-1.127,0.32-1.688s0.202-1.101,0.292-1.622h2.192
			c-0.317,1.535-0.682,3.093-1.095,4.673c-0.413,1.58-0.859,3.08-1.34,4.5h-1.93c-0.315-0.848-0.622-1.736-0.918-2.667
			c-0.297-0.931-0.59-1.865-0.878-2.8c-0.289,0.936-0.578,1.869-0.867,2.8c-0.29,0.931-0.591,1.82-0.908,2.667h-1.929
			c-0.48-1.421-0.926-2.921-1.338-4.5c-0.412-1.58-0.777-3.138-1.093-4.673h2.286c0.09,0.521,0.19,1.061,0.299,1.622
			s0.223,1.123,0.34,1.688c0.118,0.565,0.238,1.112,0.361,1.642c0.122,0.529,0.247,1.019,0.374,1.469
			c0.163-0.433,0.32-0.892,0.475-1.377c0.153-0.485,0.303-0.971,0.447-1.456c0.145-0.486,0.278-0.953,0.4-1.403
			c0.122-0.45,0.232-0.852,0.332-1.205H60.272L60.272,11.337z"/>
		<path fill="#020202" d="M67.107,10.357h2.11v9.174h-2.11V10.357z"/>
	</g>
	<g>
		<path fill="#020202" d="M77.247,19.531c-0.19-0.299-0.414-0.621-0.672-0.967c-0.257-0.347-0.535-0.697-0.833-1.049
			c-0.298-0.352-0.609-0.69-0.935-1.013c-0.325-0.323-0.651-0.608-0.976-0.856v3.886h-2.11v-9.174h2.11v3.448
			c0.542-0.558,1.094-1.14,1.653-1.75c0.56-0.609,1.077-1.174,1.551-1.698h2.504c-0.638,0.743-1.28,1.458-1.925,2.145
			c-0.646,0.686-1.326,1.376-2.038,2.072c0.75,0.612,1.474,1.338,2.169,2.179c0.698,0.84,1.367,1.766,2.011,2.779L77.247,19.531
			L77.247,19.531z"/>
	</g>
	<g>
		<path fill="#020202" d="M81.312,10.357h2.11v9.174h-2.11V10.357z"/>
	</g>
	<g>
		<path fill="#020202" d="M53.972,22.589h2.111v9.174h-2.111V22.589z"/>
	</g>
	<g>
		<path fill="#020202" d="M64.862,31.763c-0.604-1.05-1.258-2.087-1.961-3.11c-0.704-1.024-1.452-1.991-2.246-2.899v6.01h-2.083
			v-9.174h1.718c0.298,0.291,0.627,0.648,0.987,1.072c0.361,0.424,0.729,0.876,1.103,1.357c0.375,0.48,0.747,0.98,1.116,1.496
			c0.369,0.517,0.717,1.013,1.042,1.489v-5.414h2.097v9.174H64.862z"/>
		<path fill="#020202" d="M71.939,31.763c-0.374-0.771-0.741-1.57-1.104-2.399c-0.363-0.828-0.708-1.647-1.034-2.459
			c-0.327-0.811-0.627-1.588-0.901-2.33c-0.274-0.742-0.511-1.403-0.71-1.986h2.327c0.175,0.531,0.37,1.104,0.585,1.715
			c0.215,0.613,0.433,1.224,0.656,1.831c0.223,0.608,0.437,1.19,0.641,1.748c0.204,0.558,0.399,1.039,0.586,1.444
			c0.177-0.403,0.369-0.882,0.578-1.439c0.208-0.557,0.424-1.14,0.647-1.748c0.223-0.608,0.441-1.219,0.656-1.832
			c0.215-0.612,0.411-1.185,0.587-1.719H77.7c-0.21,0.585-0.452,1.249-0.725,1.988c-0.273,0.739-0.572,1.517-0.896,2.328
			c-0.325,0.812-0.667,1.633-1.028,2.462s-0.727,1.629-1.098,2.396H71.939L71.939,31.763z"/>
		<path fill="#020202" d="M79.242,31.763v-9.174h6.331v1.734h-4.221v1.8h3.747v1.694h-3.747v2.211h4.532v1.734H79.242z"/>
	</g>
	<g>
		<path fill="#020202" d="M90.334,30.188c0.298,0,0.543-0.024,0.737-0.073c0.194-0.049,0.35-0.114,0.467-0.199
			c0.117-0.083,0.199-0.183,0.244-0.298c0.045-0.114,0.067-0.242,0.067-0.384c0-0.299-0.145-0.549-0.432-0.747
			c-0.29-0.198-0.786-0.412-1.488-0.643c-0.307-0.105-0.613-0.228-0.92-0.364c-0.307-0.137-0.582-0.31-0.826-0.516
			c-0.243-0.208-0.441-0.459-0.595-0.755c-0.153-0.295-0.229-0.656-0.229-1.079c0-0.424,0.081-0.805,0.243-1.144
			c0.163-0.341,0.393-0.63,0.69-0.868c0.298-0.238,0.658-0.421,1.082-0.549c0.425-0.128,0.902-0.192,1.434-0.192
			c0.631,0,1.178,0.066,1.638,0.198c0.46,0.132,0.838,0.278,1.136,0.437l-0.609,1.628c-0.261-0.132-0.552-0.25-0.873-0.351
			c-0.32-0.101-0.706-0.153-1.157-0.153c-0.506,0-0.868,0.07-1.088,0.206c-0.221,0.137-0.331,0.346-0.331,0.628
			c0,0.168,0.04,0.309,0.121,0.424s0.196,0.219,0.346,0.312c0.149,0.091,0.32,0.175,0.514,0.25c0.194,0.076,0.408,0.152,0.643,0.232
			c0.487,0.176,0.911,0.35,1.271,0.521c0.361,0.173,0.661,0.374,0.9,0.604c0.238,0.229,0.417,0.499,0.534,0.807
			c0.118,0.31,0.176,0.685,0.176,1.126c0,0.856-0.307,1.52-0.92,1.991c-0.613,0.474-1.538,0.709-2.773,0.709
			c-0.415,0-0.79-0.024-1.123-0.072c-0.334-0.05-0.629-0.109-0.886-0.179c-0.257-0.071-0.479-0.146-0.663-0.227
			c-0.185-0.078-0.34-0.153-0.466-0.225l0.595-1.641c0.279,0.149,0.625,0.284,1.035,0.403C89.236,30.127,89.74,30.188,90.334,30.188
			z"/>
	</g>
	<g>
		<path fill="#020202" d="M102.672,22.589v1.761h-2.827v7.413h-2.111V24.35h-2.827v-1.761H102.672L102.672,22.589z"/>
	</g>
	<g>
		<path fill="#020202" d="M104.349,22.589h2.11v9.174h-2.11V22.589z"/>
	</g>
	<g>
		<path fill="#020202" d="M113.535,24.177c-0.983,0-1.693,0.268-2.13,0.801c-0.438,0.534-0.657,1.264-0.657,2.191
			c0,0.45,0.055,0.858,0.162,1.225c0.109,0.366,0.271,0.683,0.488,0.946c0.217,0.266,0.486,0.47,0.812,0.616
			c0.324,0.145,0.703,0.218,1.136,0.218c0.234,0,0.436-0.004,0.602-0.012c0.167-0.011,0.314-0.027,0.44-0.055v-3.19h2.11v4.541
			c-0.253,0.098-0.659,0.201-1.218,0.312c-0.56,0.109-1.248,0.165-2.069,0.165c-0.703,0-1.342-0.105-1.915-0.318
			c-0.572-0.211-1.062-0.52-1.467-0.925c-0.406-0.406-0.72-0.906-0.94-1.496c-0.221-0.592-0.331-1.268-0.331-2.026
			c0-0.768,0.121-1.446,0.365-2.038c0.242-0.591,0.577-1.091,1.001-1.503c0.424-0.41,0.923-0.721,1.495-0.933
			s1.184-0.318,1.833-0.318c0.442,0,0.84,0.029,1.196,0.086c0.356,0.058,0.663,0.125,0.921,0.199
			c0.257,0.075,0.468,0.151,0.635,0.231c0.167,0.079,0.287,0.141,0.359,0.185l-0.609,1.655c-0.288-0.15-0.62-0.28-0.995-0.39
			C114.385,24.233,113.978,24.177,113.535,24.177z"/>
	</g>
	<g>
		<path fill="#020202" d="M125.074,31.763c-0.106-0.318-0.219-0.646-0.338-0.981c-0.12-0.336-0.239-0.671-0.358-1.004h-3.662
			c-0.117,0.334-0.236,0.669-0.355,1.006c-0.119,0.336-0.229,0.662-0.332,0.979h-2.19c0.352-0.988,0.686-1.901,1.003-2.74
			c0.316-0.839,0.627-1.629,0.931-2.369c0.302-0.742,0.602-1.446,0.895-2.112c0.295-0.666,0.6-1.317,0.915-1.952h2.001
			c0.308,0.635,0.611,1.287,0.91,1.952c0.3,0.666,0.601,1.37,0.904,2.112c0.305,0.74,0.615,1.531,0.931,2.369
			c0.317,0.838,0.653,1.752,1.006,2.74H125.074z M122.538,24.667c-0.048,0.134-0.116,0.314-0.207,0.544s-0.193,0.494-0.31,0.795
			c-0.116,0.3-0.245,0.632-0.388,0.992c-0.145,0.361-0.289,0.74-0.438,1.137h2.681c-0.144-0.397-0.282-0.778-0.416-1.14
			c-0.134-0.363-0.262-0.694-0.384-0.995c-0.121-0.301-0.227-0.565-0.318-0.795C122.668,24.977,122.594,24.797,122.538,24.667z"/>
	</g>
	<g>
		<path fill="#020202" d="M134.732,22.589v1.761h-2.826v7.413h-2.111V24.35h-2.827v-1.761H134.732L134.732,22.589z"/>
	</g>
	<g>
		<path fill="#020202" d="M136.41,22.589h2.11v9.174h-2.11V22.589z"/>
	</g>
	<g>
		<path fill="#020202" d="M149.951,27.169c0,0.785-0.119,1.477-0.357,2.072c-0.239,0.596-0.565,1.094-0.981,1.495
			c-0.415,0.402-0.908,0.705-1.48,0.907c-0.573,0.203-1.188,0.305-1.847,0.305c-0.642,0-1.245-0.102-1.813-0.305
			c-0.566-0.202-1.062-0.505-1.487-0.907c-0.423-0.401-0.758-0.899-1.002-1.495c-0.242-0.596-0.365-1.286-0.365-2.072
			s0.127-1.476,0.379-2.071c0.252-0.596,0.593-1.096,1.021-1.503c0.429-0.405,0.925-0.71,1.487-0.913
			c0.563-0.203,1.157-0.304,1.78-0.304c0.641,0,1.244,0.102,1.812,0.304c0.568,0.203,1.063,0.508,1.487,0.913
			c0.424,0.407,0.759,0.907,1.001,1.503C149.831,25.693,149.951,26.383,149.951,27.169z M142.795,27.169
			c0,0.45,0.058,0.856,0.169,1.218c0.113,0.362,0.275,0.673,0.488,0.933c0.211,0.261,0.47,0.462,0.778,0.604
			c0.306,0.141,0.657,0.212,1.055,0.212c0.387,0,0.736-0.071,1.047-0.212c0.312-0.142,0.574-0.343,0.784-0.604
			c0.214-0.26,0.375-0.57,0.489-0.933c0.111-0.361,0.168-0.768,0.168-1.218c0-0.449-0.057-0.857-0.168-1.226
			c-0.114-0.365-0.275-0.679-0.489-0.938c-0.212-0.261-0.473-0.463-0.784-0.604c-0.311-0.139-0.66-0.211-1.047-0.211
			c-0.397,0-0.749,0.073-1.055,0.218c-0.309,0.146-0.567,0.35-0.778,0.609c-0.213,0.261-0.375,0.573-0.488,0.939
			C142.853,26.324,142.795,26.728,142.795,27.169z"/>
	</g>
	<g>
		<path fill="#020202" d="M158.325,31.763c-0.604-1.05-1.258-2.087-1.961-3.11c-0.704-1.024-1.452-1.991-2.246-2.899v6.01h-2.084
			v-9.174h1.719c0.298,0.291,0.626,0.648,0.987,1.072c0.36,0.424,0.729,0.876,1.103,1.357c0.374,0.48,0.746,0.98,1.117,1.496
			c0.369,0.517,0.716,1.013,1.041,1.489v-5.414h2.097v9.174H158.325z"/>
	</g>
	<g>
		<path fill="#020202" d="M162.805,31.183c0,0.222-0.072,0.389-0.215,0.503c-0.144,0.116-0.305,0.175-0.485,0.175
			c-0.182,0-0.342-0.059-0.486-0.175c-0.143-0.114-0.213-0.281-0.213-0.503s0.07-0.39,0.213-0.505
			c0.145-0.116,0.305-0.173,0.486-0.173c0.181,0,0.342,0.057,0.485,0.173C162.732,30.793,162.805,30.961,162.805,31.183z"/>
		<path fill="#020202" d="M167.257,29.82c0,0.305-0.043,0.583-0.135,0.836c-0.09,0.253-0.22,0.469-0.391,0.647
			c-0.17,0.18-0.375,0.318-0.613,0.416s-0.506,0.147-0.803,0.147c-0.291,0-0.555-0.05-0.793-0.147
			c-0.237-0.098-0.442-0.236-0.613-0.416c-0.171-0.179-0.303-0.396-0.398-0.647c-0.096-0.253-0.143-0.531-0.143-0.836
			c0-0.304,0.048-0.582,0.146-0.832c0.1-0.25,0.234-0.465,0.407-0.641c0.173-0.177,0.379-0.314,0.617-0.412
			c0.238-0.099,0.498-0.146,0.777-0.146c0.287,0,0.549,0.048,0.787,0.146c0.238,0.098,0.443,0.235,0.614,0.412
			c0.17,0.176,0.304,0.391,0.398,0.641C167.21,29.237,167.257,29.516,167.257,29.82z M166.114,29.82c0-0.339-0.068-0.605-0.207-0.8
			c-0.139-0.192-0.335-0.29-0.592-0.29c-0.255,0-0.452,0.098-0.593,0.29c-0.141,0.194-0.211,0.461-0.211,0.8s0.07,0.607,0.211,0.807
			c0.141,0.198,0.338,0.298,0.593,0.298c0.257,0,0.453-0.1,0.592-0.298C166.046,30.428,166.114,30.159,166.114,29.82z"/>
		<path fill="#020202" d="M170.507,28.863c-0.099-0.024-0.218-0.051-0.353-0.077c-0.135-0.027-0.281-0.041-0.437-0.041
			c-0.07,0-0.155,0.007-0.253,0.019c-0.097,0.013-0.171,0.026-0.221,0.041v2.959h-1.121v-3.667c0.201-0.068,0.438-0.133,0.71-0.194
			c0.274-0.062,0.578-0.093,0.915-0.093c0.062,0,0.133,0.005,0.219,0.012c0.085,0.007,0.169,0.017,0.256,0.029
			c0.084,0.012,0.17,0.026,0.255,0.044c0.086,0.018,0.159,0.038,0.219,0.062L170.507,28.863z"/>
		<path fill="#020202" d="M174.715,31.278c0,0.633-0.164,1.103-0.493,1.41c-0.328,0.306-0.837,0.46-1.524,0.46
			c-0.241,0-0.48-0.021-0.722-0.062c-0.241-0.042-0.465-0.097-0.67-0.166l0.195-0.92c0.177,0.068,0.359,0.122,0.554,0.161
			c0.192,0.039,0.412,0.059,0.658,0.059c0.32,0,0.549-0.068,0.681-0.205c0.132-0.138,0.199-0.314,0.199-0.531v-0.139
			c-0.12,0.053-0.244,0.094-0.372,0.121c-0.127,0.026-0.268,0.04-0.418,0.04c-0.548,0-0.965-0.158-1.256-0.476
			c-0.291-0.315-0.436-0.759-0.436-1.328c0-0.285,0.043-0.543,0.135-0.777c0.091-0.232,0.221-0.433,0.395-0.6
			c0.173-0.167,0.384-0.296,0.637-0.386c0.25-0.091,0.533-0.138,0.851-0.138c0.135,0,0.274,0.007,0.417,0.02
			s0.284,0.028,0.425,0.048c0.14,0.02,0.275,0.043,0.402,0.07c0.128,0.026,0.243,0.055,0.343,0.084V31.278z M172.254,29.702
			c0,0.613,0.253,0.92,0.76,0.92c0.116,0,0.223-0.014,0.324-0.043c0.1-0.029,0.186-0.064,0.255-0.104v-1.753
			c-0.054-0.009-0.12-0.018-0.195-0.025c-0.075-0.007-0.162-0.012-0.262-0.012c-0.297,0-0.518,0.096-0.662,0.288
			C172.327,29.164,172.254,29.407,172.254,29.702z"/>
	</g>
	<g>
		<path fill="#020202" d="M55.367,40.187c-0.277,0-0.521-0.04-0.732-0.119c-0.211-0.081-0.388-0.192-0.528-0.338
			c-0.141-0.146-0.247-0.323-0.317-0.529c-0.069-0.207-0.105-0.438-0.105-0.698c0-0.376,0.061-0.734,0.182-1.076
			c0.122-0.343,0.295-0.646,0.519-0.908c0.224-0.263,0.494-0.474,0.81-0.63c0.315-0.156,0.668-0.233,1.056-0.233
			c0.333,0,0.598,0.032,0.796,0.1c0.198,0.066,0.34,0.129,0.425,0.188l-0.256,0.5c-0.098-0.063-0.231-0.121-0.399-0.179
			c-0.168-0.056-0.368-0.085-0.599-0.085c-0.293,0-0.558,0.068-0.793,0.204c-0.234,0.136-0.433,0.311-0.595,0.526
			c-0.163,0.214-0.286,0.456-0.371,0.726c-0.085,0.269-0.128,0.535-0.128,0.798c0,0.814,0.361,1.222,1.082,1.222
			c0.153,0,0.291-0.011,0.412-0.032c0.122-0.021,0.229-0.045,0.323-0.071c0.094-0.027,0.177-0.058,0.25-0.092
			c0.073-0.033,0.137-0.062,0.192-0.087l0.077,0.525c-0.051,0.029-0.118,0.062-0.202,0.095c-0.083,0.032-0.18,0.063-0.291,0.094
			c-0.111,0.029-0.234,0.053-0.371,0.071C55.666,40.177,55.521,40.187,55.367,40.187z"/>
		<path fill="#020202" d="M59.442,36.769c0.051,0,0.108,0.002,0.173,0.005c0.064,0.005,0.127,0.013,0.188,0.022
			c0.062,0.011,0.118,0.021,0.169,0.032c0.052,0.01,0.09,0.021,0.116,0.033l-0.173,0.509c-0.085-0.034-0.183-0.06-0.294-0.077
			c-0.111-0.016-0.217-0.024-0.32-0.024c-0.089,0-0.178,0.007-0.266,0.019c-0.087,0.013-0.163,0.029-0.227,0.05l-0.678,2.756h-0.595
			l0.768-3.13c0.17-0.059,0.354-0.107,0.55-0.142C59.049,36.786,59.246,36.769,59.442,36.769z"/>
		<path fill="#020202" d="M61.509,40.173c-0.35,0-0.624-0.1-0.822-0.302c-0.199-0.204-0.297-0.481-0.297-0.838
			c0-0.241,0.035-0.495,0.105-0.763c0.07-0.267,0.182-0.513,0.336-0.739c0.153-0.226,0.352-0.41,0.594-0.557
			c0.244-0.146,0.538-0.219,0.883-0.219c0.35,0,0.624,0.1,0.822,0.303c0.198,0.203,0.297,0.482,0.297,0.837
			c0,0.241-0.036,0.496-0.106,0.764c-0.07,0.267-0.182,0.514-0.335,0.738c-0.154,0.227-0.352,0.41-0.595,0.557
			C62.149,40.101,61.854,40.173,61.509,40.173z M61.611,39.68c0.192,0,0.364-0.055,0.515-0.164c0.151-0.107,0.279-0.247,0.384-0.417
			c0.104-0.169,0.184-0.354,0.239-0.56c0.056-0.204,0.083-0.402,0.083-0.594c0-0.214-0.047-0.382-0.141-0.507
			c-0.094-0.126-0.256-0.188-0.486-0.188c-0.192,0-0.364,0.054-0.515,0.162c-0.151,0.108-0.28,0.248-0.384,0.416
			c-0.104,0.169-0.184,0.355-0.239,0.561c-0.056,0.204-0.084,0.402-0.084,0.595c0,0.213,0.047,0.382,0.141,0.507
			C61.219,39.617,61.38,39.68,61.611,39.68z"/>
		<path fill="#020202" d="M67.285,39.417c0.106-0.131,0.227-0.301,0.358-0.511c0.132-0.211,0.262-0.438,0.39-0.677
			s0.248-0.482,0.358-0.726c0.111-0.244,0.196-0.467,0.256-0.667h0.608c-0.094,0.288-0.214,0.584-0.359,0.889
			s-0.301,0.601-0.47,0.887c-0.169,0.285-0.344,0.555-0.524,0.81c-0.181,0.255-0.355,0.479-0.521,0.671H66.85
			c-0.047-0.363-0.088-0.729-0.125-1.097c-0.036-0.366-0.059-0.739-0.067-1.12c-0.085,0.188-0.182,0.382-0.288,0.582
			c-0.107,0.201-0.22,0.397-0.339,0.591c-0.12,0.194-0.239,0.382-0.358,0.562c-0.12,0.179-0.234,0.338-0.346,0.481h-0.531
			c-0.089-0.431-0.162-0.92-0.217-1.469s-0.088-1.145-0.096-1.787h0.595c0.004,0.196,0.011,0.41,0.02,0.639
			c0.008,0.229,0.019,0.461,0.032,0.692c0.012,0.231,0.028,0.455,0.044,0.673c0.017,0.216,0.038,0.409,0.064,0.576
			c0.132-0.179,0.264-0.378,0.394-0.596c0.13-0.216,0.253-0.438,0.371-0.664c0.117-0.225,0.226-0.45,0.326-0.675
			c0.1-0.227,0.187-0.441,0.259-0.646h0.538c0,0.188,0.002,0.39,0.009,0.604c0.006,0.215,0.017,0.435,0.032,0.659
			c0.015,0.226,0.031,0.452,0.051,0.673C67.237,38.999,67.26,39.211,67.285,39.417z"/>
		<path fill="#020202" d="M72.166,39.447c0,0.097,0.009,0.193,0.026,0.291s0.047,0.203,0.089,0.317l-0.525,0.074
			c-0.047-0.093-0.083-0.203-0.108-0.332c-0.095,0.083-0.22,0.167-0.378,0.249c-0.157,0.085-0.352,0.126-0.582,0.126
			c-0.188,0-0.35-0.026-0.486-0.084c-0.137-0.056-0.25-0.137-0.339-0.24c-0.089-0.104-0.156-0.229-0.198-0.373
			c-0.043-0.145-0.064-0.302-0.064-0.473c0-0.28,0.048-0.553,0.144-0.819c0.096-0.268,0.239-0.506,0.429-0.714
			c0.19-0.209,0.428-0.377,0.713-0.505c0.286-0.127,0.618-0.191,0.998-0.191c0.047,0,0.094,0.003,0.14,0.007
			c0.047,0.005,0.096,0.011,0.148,0.019l0.358-1.464l0.621-0.1l-0.902,3.662c-0.021,0.095-0.04,0.187-0.057,0.275
			C72.175,39.26,72.166,39.352,72.166,39.447z M70.811,39.68c0.179,0,0.331-0.038,0.457-0.11c0.126-0.074,0.236-0.157,0.33-0.254
			c0.004-0.066,0.012-0.138,0.022-0.217c0.011-0.075,0.026-0.16,0.048-0.252l0.384-1.565c-0.038-0.008-0.081-0.014-0.127-0.017
			c-0.047-0.001-0.092-0.002-0.135-0.002c-0.243,0-0.462,0.046-0.659,0.138c-0.196,0.091-0.363,0.216-0.502,0.369
			c-0.139,0.154-0.246,0.333-0.32,0.535c-0.074,0.201-0.111,0.414-0.111,0.636c0,0.095,0.01,0.187,0.032,0.275
			c0.021,0.087,0.055,0.165,0.102,0.233c0.047,0.069,0.11,0.124,0.189,0.166C70.598,39.658,70.694,39.68,70.811,39.68z"/>
		<path fill="#020202" d="M74.111,39.686c0.089,0,0.18-0.009,0.272-0.024c0.092-0.018,0.172-0.044,0.244-0.083
			c0.069-0.037,0.127-0.088,0.172-0.152c0.044-0.064,0.067-0.146,0.067-0.24c0-0.063-0.01-0.119-0.032-0.167
			c-0.021-0.048-0.056-0.093-0.102-0.135c-0.047-0.042-0.105-0.082-0.176-0.122c-0.07-0.039-0.155-0.084-0.253-0.134
			c-0.098-0.047-0.188-0.092-0.269-0.139c-0.081-0.045-0.152-0.1-0.214-0.162c-0.062-0.062-0.11-0.136-0.144-0.223
			c-0.034-0.085-0.052-0.188-0.052-0.31c0-0.312,0.116-0.564,0.346-0.755c0.23-0.189,0.565-0.284,1.004-0.284
			c0.205,0,0.385,0.021,0.541,0.06c0.156,0.039,0.263,0.076,0.323,0.109l-0.224,0.477c-0.06-0.034-0.156-0.068-0.288-0.107
			c-0.132-0.037-0.28-0.056-0.441-0.056c-0.081,0-0.162,0.009-0.243,0.024c-0.081,0.017-0.155,0.045-0.221,0.086
			c-0.066,0.038-0.12,0.091-0.161,0.155c-0.04,0.064-0.061,0.144-0.061,0.234c0,0.113,0.045,0.206,0.134,0.28
			c0.089,0.071,0.224,0.148,0.403,0.228c0.111,0.051,0.21,0.102,0.297,0.153c0.087,0.053,0.162,0.111,0.224,0.176
			c0.062,0.063,0.109,0.14,0.14,0.228c0.033,0.088,0.048,0.192,0.048,0.313c0,0.176-0.034,0.33-0.102,0.464
			c-0.068,0.134-0.164,0.243-0.285,0.331s-0.266,0.154-0.432,0.197c-0.166,0.044-0.348,0.064-0.544,0.064
			c-0.145,0-0.276-0.009-0.394-0.026c-0.117-0.02-0.22-0.041-0.307-0.066c-0.087-0.024-0.16-0.051-0.218-0.078
			c-0.058-0.026-0.101-0.049-0.131-0.064l0.23-0.477c0.03,0.017,0.071,0.038,0.125,0.062c0.053,0.024,0.117,0.05,0.191,0.075
			s0.157,0.046,0.246,0.062C73.919,39.677,74.012,39.686,74.111,39.686z"/>
		<path fill="#020202" d="M77.508,40.173c-0.35,0-0.624-0.1-0.822-0.302c-0.198-0.204-0.297-0.481-0.297-0.838
			c0-0.241,0.036-0.495,0.106-0.763c0.07-0.267,0.182-0.513,0.335-0.739c0.153-0.226,0.352-0.41,0.595-0.557
			c0.243-0.146,0.537-0.219,0.883-0.219c0.35,0,0.624,0.1,0.822,0.303c0.198,0.203,0.298,0.482,0.298,0.837
			c0,0.241-0.035,0.496-0.106,0.764c-0.07,0.267-0.182,0.514-0.336,0.738c-0.153,0.227-0.352,0.41-0.594,0.557
			C78.147,40.101,77.853,40.173,77.508,40.173z M77.61,39.68c0.191,0,0.363-0.055,0.515-0.164c0.151-0.107,0.279-0.247,0.383-0.417
			c0.104-0.169,0.185-0.354,0.24-0.56c0.056-0.204,0.083-0.402,0.083-0.594c0-0.214-0.046-0.382-0.141-0.507
			c-0.094-0.126-0.255-0.188-0.486-0.188c-0.192,0-0.364,0.054-0.515,0.162c-0.152,0.108-0.28,0.248-0.384,0.416
			c-0.104,0.169-0.184,0.355-0.24,0.561c-0.056,0.204-0.083,0.402-0.083,0.595c0,0.213,0.047,0.382,0.141,0.507
			C77.217,39.617,77.38,39.68,77.61,39.68z"/>
		<path fill="#020202" d="M81.32,40.173c-0.187,0-0.344-0.026-0.47-0.08c-0.126-0.056-0.228-0.128-0.308-0.22
			c-0.079-0.091-0.135-0.2-0.169-0.326c-0.034-0.125-0.051-0.259-0.051-0.4c0-0.107,0.01-0.216,0.029-0.322
			c0.019-0.105,0.042-0.214,0.067-0.322l0.41-1.665h0.595l-0.378,1.541c-0.021,0.095-0.048,0.208-0.083,0.337
			c-0.034,0.13-0.051,0.258-0.051,0.389c0,0.075,0.007,0.146,0.022,0.216c0.015,0.069,0.043,0.129,0.083,0.181
			c0.041,0.053,0.095,0.093,0.164,0.125c0.068,0.031,0.153,0.048,0.255,0.048c0.184,0,0.345-0.039,0.483-0.115
			c0.139-0.078,0.255-0.169,0.349-0.273c0.004-0.066,0.011-0.135,0.019-0.206c0.008-0.07,0.024-0.148,0.045-0.231l0.493-2.01h0.595
			l-0.505,2.061c-0.021,0.096-0.04,0.188-0.055,0.277c-0.015,0.091-0.022,0.184-0.022,0.279c0,0.097,0.008,0.192,0.026,0.287
			c0.016,0.097,0.047,0.2,0.089,0.314l-0.525,0.075c-0.021-0.048-0.043-0.098-0.064-0.157c-0.021-0.059-0.038-0.122-0.051-0.188
			c-0.047,0.042-0.102,0.086-0.166,0.132c-0.064,0.047-0.138,0.089-0.221,0.126s-0.175,0.068-0.275,0.093
			C81.55,40.161,81.439,40.173,81.32,40.173z"/>
		<path fill="#020202" d="M85.85,36.769c0.051,0,0.108,0.002,0.173,0.005c0.064,0.005,0.127,0.013,0.188,0.022
			c0.062,0.011,0.118,0.021,0.17,0.032c0.051,0.01,0.089,0.021,0.115,0.033l-0.173,0.509c-0.085-0.034-0.183-0.06-0.294-0.077
			c-0.111-0.016-0.217-0.024-0.319-0.024c-0.09,0-0.179,0.007-0.266,0.019c-0.087,0.013-0.163,0.029-0.227,0.05l-0.679,2.756h-0.594
			l0.768-3.13c0.171-0.059,0.354-0.107,0.55-0.142C85.458,36.786,85.653,36.769,85.85,36.769z"/>
		<path fill="#020202" d="M86.79,38.928c0-0.284,0.043-0.558,0.131-0.82c0.088-0.264,0.216-0.494,0.387-0.695
			c0.171-0.2,0.379-0.359,0.627-0.479c0.247-0.119,0.53-0.178,0.851-0.178c0.141,0,0.274,0.009,0.402,0.027
			c0.128,0.019,0.25,0.055,0.365,0.109l-0.224,0.488c-0.068-0.037-0.147-0.066-0.24-0.088c-0.091-0.02-0.21-0.03-0.355-0.03
			c-0.208,0-0.397,0.044-0.563,0.134c-0.166,0.09-0.308,0.209-0.425,0.356c-0.117,0.148-0.207,0.319-0.269,0.514
			s-0.093,0.396-0.093,0.604c0,0.109,0.012,0.212,0.035,0.308c0.024,0.095,0.065,0.18,0.125,0.253c0.06,0.072,0.14,0.13,0.24,0.173
			c0.101,0.041,0.227,0.062,0.381,0.062c0.077,0,0.158-0.006,0.243-0.021c0.085-0.015,0.164-0.032,0.236-0.053
			c0.073-0.021,0.138-0.043,0.195-0.065c0.058-0.023,0.099-0.046,0.125-0.066l0.051,0.495c-0.081,0.051-0.207,0.099-0.378,0.146
			c-0.17,0.048-0.365,0.072-0.582,0.072c-0.205,0-0.386-0.03-0.544-0.09c-0.158-0.061-0.291-0.146-0.397-0.257
			s-0.188-0.243-0.243-0.394C86.818,39.279,86.79,39.112,86.79,38.928z"/>
		<path fill="#020202" d="M90.436,40.091h-0.595l0.799-3.254h0.596L90.436,40.091z M91.127,36.249c-0.098,0-0.18-0.03-0.247-0.089
			c-0.065-0.059-0.099-0.139-0.099-0.244c0-0.133,0.043-0.238,0.129-0.315c0.085-0.077,0.18-0.116,0.288-0.116
			c0.098,0,0.181,0.03,0.249,0.09c0.068,0.061,0.103,0.146,0.103,0.254c0,0.126-0.045,0.228-0.133,0.304
			C91.325,36.21,91.229,36.249,91.127,36.249z"/>
		<path fill="#020202" d="M92.35,40.091h-0.595l0.768-3.128c0.197-0.06,0.408-0.107,0.637-0.142c0.228-0.035,0.432-0.053,0.61-0.053
			c0.192,0,0.357,0.025,0.496,0.077c0.139,0.053,0.25,0.124,0.336,0.213c0.085,0.091,0.148,0.198,0.189,0.327
			c0.041,0.127,0.061,0.265,0.061,0.416c0,0.095-0.008,0.196-0.024,0.302c-0.018,0.108-0.039,0.215-0.065,0.324l-0.41,1.665h-0.594
			l0.377-1.54c0.03-0.117,0.058-0.235,0.086-0.356c0.027-0.122,0.042-0.236,0.042-0.345c0-0.167-0.047-0.307-0.141-0.417
			s-0.269-0.166-0.524-0.166c-0.107,0-0.211,0.007-0.313,0.019c-0.102,0.013-0.187,0.029-0.256,0.051L92.35,40.091z"/>
		<path fill="#020202" d="M96.398,40.768c0.174,0,0.328-0.02,0.46-0.062c0.133-0.043,0.247-0.104,0.342-0.182
			c0.097-0.08,0.174-0.175,0.233-0.282c0.06-0.108,0.107-0.231,0.142-0.37l0.024-0.118c-0.084,0.046-0.2,0.092-0.345,0.137
			c-0.145,0.047-0.294,0.07-0.448,0.07c-0.345,0-0.611-0.084-0.796-0.254c-0.185-0.169-0.278-0.406-0.278-0.711
			c0-0.279,0.047-0.552,0.141-0.82c0.094-0.267,0.237-0.505,0.428-0.714s0.431-0.377,0.717-0.503c0.285-0.128,0.621-0.19,1.005-0.19
			c0.059,0,0.126,0.004,0.201,0.012s0.152,0.021,0.23,0.034c0.079,0.016,0.156,0.035,0.23,0.06c0.075,0.025,0.14,0.054,0.195,0.089
			l-0.697,2.848c-0.055,0.225-0.123,0.428-0.205,0.607c-0.081,0.179-0.192,0.331-0.332,0.457c-0.142,0.125-0.323,0.223-0.545,0.291
			c-0.223,0.068-0.499,0.103-0.832,0.103c-0.183,0-0.364-0.022-0.543-0.071c-0.18-0.048-0.331-0.107-0.454-0.179l0.223-0.489
			c0.099,0.072,0.229,0.13,0.391,0.174C96.048,40.746,96.219,40.768,96.398,40.768z M96.937,39.473c0.169,0,0.327-0.03,0.469-0.091
			c0.144-0.061,0.253-0.118,0.33-0.172l0.466-1.904c-0.042-0.008-0.091-0.016-0.146-0.024c-0.056-0.008-0.109-0.013-0.16-0.013
			c-0.231,0-0.442,0.044-0.633,0.129c-0.193,0.086-0.358,0.2-0.497,0.345c-0.139,0.144-0.246,0.31-0.323,0.5
			c-0.076,0.189-0.115,0.388-0.115,0.591c0,0.227,0.05,0.39,0.15,0.489C96.579,39.422,96.731,39.473,96.937,39.473z"/>
		<path fill="#020202" d="M103.448,35.71c0.516,0,0.906,0.096,1.168,0.288c0.261,0.191,0.393,0.471,0.393,0.839
			c0,0.284-0.054,0.529-0.162,0.735c-0.109,0.207-0.264,0.376-0.464,0.51c-0.202,0.134-0.442,0.233-0.724,0.298
			s-0.594,0.097-0.94,0.097h-0.441l-0.397,1.616h-0.621l1.05-4.282c0.179-0.042,0.369-0.068,0.569-0.082
			C103.079,35.716,103.269,35.71,103.448,35.71z M103.371,36.223c-0.302,0-0.485,0.008-0.549,0.026l-0.423,1.721h0.403
			c0.18,0,0.362-0.016,0.551-0.047c0.187-0.031,0.356-0.088,0.505-0.165c0.149-0.08,0.272-0.19,0.367-0.33
			c0.096-0.141,0.145-0.319,0.145-0.541c0-0.237-0.089-0.408-0.269-0.511C103.921,36.274,103.679,36.223,103.371,36.223z"/>
		<path fill="#020202" d="M106.206,38.659c-0.022,0.092-0.043,0.181-0.063,0.269c-0.022,0.088-0.033,0.171-0.033,0.251
			c0,0.142,0.035,0.254,0.105,0.337c0.07,0.084,0.201,0.136,0.394,0.157l-0.135,0.476c-0.175-0.005-0.322-0.03-0.444-0.077
			c-0.122-0.049-0.221-0.111-0.293-0.191c-0.075-0.08-0.13-0.173-0.163-0.281c-0.035-0.108-0.052-0.228-0.052-0.357
			c0-0.096,0.008-0.196,0.026-0.301c0.017-0.104,0.041-0.212,0.071-0.325l0.806-3.28l0.62-0.1L106.206,38.659z"/>
		<path fill="#020202" d="M109.679,40.13c-0.021-0.047-0.044-0.097-0.064-0.153c-0.021-0.057-0.038-0.117-0.051-0.179
			c-0.094,0.083-0.219,0.167-0.378,0.249c-0.157,0.085-0.352,0.126-0.582,0.126c-0.188,0-0.348-0.029-0.482-0.087
			c-0.135-0.059-0.243-0.14-0.329-0.244c-0.086-0.104-0.148-0.229-0.189-0.369c-0.039-0.142-0.061-0.299-0.061-0.47
			c0-0.28,0.048-0.552,0.145-0.819c0.095-0.268,0.24-0.506,0.432-0.714c0.191-0.209,0.433-0.379,0.723-0.507
			c0.29-0.13,0.629-0.194,1.018-0.194c0.115,0,0.249,0.012,0.403,0.038c0.153,0.023,0.285,0.065,0.396,0.125l-0.493,1.966
			c-0.021,0.095-0.04,0.187-0.054,0.275c-0.017,0.087-0.022,0.179-0.022,0.274c0,0.097,0.008,0.193,0.024,0.291
			c0.018,0.098,0.048,0.203,0.091,0.317L109.679,40.13z M108.726,39.68c0.179,0,0.333-0.038,0.46-0.113
			c0.129-0.075,0.239-0.162,0.334-0.264c0.004-0.07,0.012-0.145,0.021-0.222c0.012-0.077,0.025-0.155,0.042-0.234l0.385-1.554
			c-0.021-0.008-0.057-0.014-0.106-0.018c-0.048-0.005-0.092-0.007-0.131-0.007c-0.243,0-0.463,0.046-0.659,0.139
			c-0.196,0.091-0.363,0.213-0.502,0.365s-0.244,0.33-0.32,0.532c-0.074,0.201-0.111,0.414-0.111,0.636
			c0,0.087,0.008,0.176,0.025,0.266c0.017,0.091,0.049,0.168,0.094,0.239c0.043,0.068,0.104,0.124,0.179,0.168
			C108.509,39.656,108.606,39.68,108.726,39.68z"/>
		<path fill="#020202" d="M112.34,40.18c-0.319,0-0.554-0.069-0.703-0.206c-0.149-0.138-0.224-0.339-0.224-0.602
			c0-0.171,0.029-0.391,0.089-0.657l0.686-2.786l0.62-0.101l-0.251,1.009h1.133l-0.121,0.487h-1.132l-0.353,1.44
			c-0.051,0.195-0.076,0.367-0.076,0.514c0,0.139,0.038,0.236,0.115,0.297c0.076,0.061,0.204,0.09,0.383,0.09
			c0.124,0,0.246-0.019,0.365-0.059c0.12-0.039,0.212-0.076,0.275-0.108l0.044,0.494c-0.062,0.037-0.172,0.078-0.325,0.121
			C112.711,40.158,112.536,40.18,112.34,40.18z"/>
		<path fill="#020202" d="M115.404,36.837h1.112l-0.115,0.487h-1.112l-0.512,2.067c-0.051,0.212-0.096,0.403-0.135,0.569
			c-0.038,0.166-0.083,0.323-0.137,0.47c-0.054,0.146-0.124,0.285-0.212,0.422c-0.087,0.136-0.205,0.276-0.354,0.423l-0.525-0.074
			c0.13-0.165,0.229-0.301,0.301-0.414c0.072-0.112,0.133-0.228,0.184-0.344c0.049-0.117,0.092-0.252,0.128-0.405
			c0.035-0.151,0.084-0.349,0.144-0.591l0.71-2.904c0.051-0.209,0.116-0.396,0.195-0.558s0.179-0.3,0.3-0.41
			c0.122-0.111,0.267-0.194,0.433-0.254c0.166-0.058,0.364-0.086,0.595-0.086c0.148,0,0.291,0.015,0.426,0.042
			c0.134,0.03,0.234,0.061,0.303,0.095l-0.235,0.463c-0.035-0.016-0.094-0.037-0.177-0.062c-0.082-0.025-0.206-0.037-0.367-0.037
			c-0.141,0-0.261,0.021-0.358,0.06c-0.099,0.04-0.183,0.096-0.249,0.166c-0.068,0.071-0.123,0.156-0.164,0.257
			c-0.04,0.1-0.075,0.212-0.105,0.338L115.404,36.837z"/>
		<path fill="#020202" d="M117.95,40.173c-0.351,0-0.624-0.1-0.822-0.302c-0.199-0.204-0.299-0.481-0.299-0.838
			c0-0.241,0.036-0.495,0.105-0.763c0.072-0.267,0.185-0.513,0.337-0.739c0.153-0.226,0.353-0.41,0.596-0.557
			c0.242-0.146,0.537-0.219,0.881-0.219c0.351,0,0.625,0.1,0.823,0.303c0.2,0.203,0.297,0.482,0.297,0.837
			c0,0.241-0.034,0.496-0.104,0.764c-0.071,0.267-0.184,0.514-0.336,0.738c-0.153,0.227-0.353,0.41-0.595,0.557
			S118.296,40.173,117.95,40.173z M118.052,39.68c0.193,0,0.363-0.055,0.516-0.164c0.151-0.107,0.28-0.247,0.383-0.417
			c0.104-0.169,0.186-0.354,0.241-0.56c0.055-0.204,0.083-0.402,0.083-0.594c0-0.214-0.047-0.382-0.141-0.507
			c-0.095-0.126-0.256-0.188-0.486-0.188c-0.191,0-0.364,0.054-0.516,0.162c-0.15,0.108-0.278,0.248-0.383,0.416
			c-0.104,0.169-0.186,0.355-0.239,0.561c-0.057,0.204-0.085,0.402-0.085,0.595c0,0.213,0.048,0.382,0.142,0.507
			C117.66,39.617,117.822,39.68,118.052,39.68z"/>
		<path fill="#020202" d="M122.454,36.769c0.051,0,0.108,0.002,0.173,0.005c0.064,0.005,0.127,0.013,0.188,0.022
			c0.062,0.011,0.118,0.021,0.17,0.032c0.052,0.01,0.09,0.021,0.114,0.033l-0.172,0.509c-0.085-0.034-0.184-0.06-0.294-0.077
			c-0.111-0.016-0.218-0.024-0.321-0.024c-0.09,0-0.177,0.007-0.265,0.019c-0.087,0.013-0.163,0.029-0.228,0.05l-0.678,2.756h-0.596
			l0.768-3.13c0.172-0.059,0.354-0.107,0.55-0.142C122.062,36.786,122.258,36.769,122.454,36.769z"/>
		<path fill="#020202" d="M127.099,36.769c0.187,0,0.346,0.027,0.477,0.084c0.13,0.057,0.234,0.133,0.312,0.229
			s0.135,0.208,0.171,0.336c0.033,0.127,0.051,0.261,0.051,0.403c0,0.091-0.007,0.19-0.022,0.298
			c-0.015,0.105-0.035,0.209-0.062,0.31l-0.409,1.666h-0.595l0.377-1.541c0.022-0.096,0.046-0.203,0.073-0.323
			c0.028-0.118,0.043-0.236,0.043-0.353c0-0.079-0.011-0.157-0.028-0.231c-0.021-0.074-0.052-0.141-0.097-0.193
			c-0.045-0.056-0.106-0.1-0.188-0.132c-0.081-0.035-0.182-0.05-0.302-0.05c-0.136,0-0.268,0.025-0.396,0.078
			c-0.128,0.05-0.234,0.104-0.319,0.158c0.008,0.059,0.016,0.117,0.021,0.172c0.007,0.058,0.01,0.112,0.01,0.166
			c0,0.096-0.008,0.193-0.022,0.292c-0.016,0.098-0.033,0.194-0.054,0.291l-0.409,1.666h-0.596l0.378-1.541
			c0.022-0.096,0.045-0.205,0.069-0.326c0.025-0.12,0.039-0.242,0.039-0.363c0-0.079-0.009-0.155-0.025-0.228
			c-0.016-0.072-0.046-0.137-0.087-0.192c-0.04-0.054-0.095-0.096-0.163-0.128c-0.068-0.031-0.155-0.047-0.263-0.047
			c-0.105,0-0.209,0.007-0.31,0.019c-0.1,0.013-0.185,0.029-0.253,0.05l-0.679,2.756h-0.594l0.768-3.13
			c0.191-0.059,0.401-0.107,0.631-0.142c0.228-0.035,0.432-0.053,0.61-0.053s0.331,0.03,0.454,0.091
			c0.124,0.06,0.222,0.141,0.295,0.24c0.041-0.029,0.101-0.062,0.175-0.1c0.076-0.037,0.16-0.073,0.257-0.105
			c0.096-0.035,0.2-0.063,0.312-0.088C126.862,36.78,126.979,36.769,127.099,36.769z"/>
	</g>
	<path fill="#F04923" d="M44.028,40.634c-0.908-2.659-3.44-4.339-6.157-4.338v-0.002c-1.882-0.192-2.443,0.216-3.078-0.979
		c-0.558-1.048,0.114-2.885,1.068-4.375h-0.002c1.677-2.702,2.176-6.081,1.072-9.313c-1.315-3.853-4.574-6.533-8.354-7.349
		c-0.434-0.113-0.926-1.049-0.872-1.875c0.049-0.753,0.405-1.44,0.882-1.728l0.014-0.009c0.435-0.25,0.826-0.598,1.185-0.983
		c1.887-2.027,1.784-5.151-0.231-6.98c-2.015-1.83-5.179-1.67-7.067,0.356c-1.887,2.026-1.784,5.151,0.232,6.98
		c0.296,0.269,0.62,0.49,0.958,0.673v0.006c0.482,0.279,0.852,0.959,0.914,1.712c0.064,0.767,0.002,1.664-0.726,1.815
		c-0.446,0.089-0.891,0.203-1.333,0.348c-5.961,1.948-9.179,8.257-7.188,14.09c1.632,4.781,6.257,7.757,11.155,7.602
		c0,0,5.787-0.72,5.787,2.605c0,0.262-0.087,0.564-0.217,0.909c-0.247,0.483-0.431,0.997-0.547,1.529
		c-0.195,0.72-0.287,1.551-0.027,2.506h0.001c0.054,0.275,0.125,0.551,0.219,0.823c1.136,3.328,4.813,5.124,8.212,4.013
		C43.329,47.559,45.164,43.962,44.028,40.634 M20.643,26.951c-1.013-2.97,0.625-6.181,3.659-7.173
		c3.034-0.992,6.315,0.612,7.33,3.58c1.014,2.97-0.624,6.181-3.659,7.173C24.939,31.523,21.657,29.92,20.643,26.951"/>
</g>
</svg>
